<svg width="492" height="95" viewBox="0 0 492 95" fill="none" xmlns="http://www.w3.org/2000/svg">
<path fill-rule="evenodd" clip-rule="evenodd" d="M311.988 0L357.532 35.1922L392.19 59.1599L407.561 40.6744L433.875 50.082L490.198 0.841979L492 3.15004L434.462 53.4519L408.44 44.1487L392.694 63.0849L355.923 37.6559L312.357 3.99202L274.397 47.543L256.393 29.2369L206.456 89.9002L173.643 73.6458L166.17 95L124.267 31.923L91.2019 47.1853L85.3674 41.0107L66.632 44.0035L40.5006 16.7229L0.577923 25.5402L0 22.6096L41.4075 13.4644L67.6104 40.8196L86.3576 37.8249L91.8386 43.6253L125.253 28.2017L165.387 88.6165L172.058 69.5552L205.724 86.232L256.211 24.9003L274.276 43.2675L311.988 0Z" fill="url(#paint0_linear_1166_1180)"/>
<defs>
<linearGradient id="paint0_linear_1166_1180" x1="485.441" y1="21.0811" x2="-88.1135" y2="20.747" gradientUnits="userSpaceOnUse">
<stop offset="0.308662" stop-color="white"/>
<stop offset="1" stop-opacity="0"/>
</linearGradient>
</defs>
</svg>
