<svg xmlns="http://www.w3.org/2000/svg" width="204" height="48" viewBox="0 0 204 48" fill="none">
  <path d="M43.3414 37.2754C43.3414 40.5182 42.0893 43.0546 39.6171 44.8525C37.3696 46.4899 34.5443 47.3247 31.1731 47.3247C27.9304 47.3247 25.1693 46.3615 22.9218 44.4351C20.6744 42.5087 19.4223 39.9724 19.1975 36.7938H27.5772C27.7057 39.2018 28.9899 40.4218 31.4942 40.4218C33.8058 40.4218 34.9938 39.4265 34.9938 37.4681C34.9938 36.0554 33.6774 34.8354 31.0768 33.808C26.7104 32.0421 24.2703 30.9826 23.7887 30.6615C21.1881 29.0562 19.8717 26.873 19.8717 24.1119C19.8717 21.0939 21.0276 18.6217 23.3713 16.6953C25.5545 14.9295 28.1552 14.0305 31.2695 14.0305C38.0439 14.0305 41.8003 17.2411 42.5387 23.6624H34.2232C34.2232 21.8644 33.1637 20.9655 31.0768 20.9655C29.1826 20.9655 28.2515 21.8002 28.2515 23.4376C28.2515 24.3687 29.1183 25.1714 30.8521 25.8456C31.9758 26.3272 33.6774 27.0656 35.9249 28.0288C40.8371 30.0194 43.3414 33.1016 43.3414 37.2754Z" fill="white"/>
  <path d="M61.5202 21.6715H57.2501V46.3612H48.2282V21.6715H44.4397V15.0576H48.2282V4.68726H57.2501V15.0576H61.5202V21.6715Z" fill="white"/>
  <path d="M96.6724 46.3616H87.7468V42.7978C86.7836 44.2105 85.4352 45.3021 83.7014 46.0727C81.9677 46.8432 80.2019 47.2606 78.4039 47.2606C73.8127 47.2606 70.0884 45.6232 67.1346 42.3162C64.3093 39.1698 62.9287 35.285 62.9287 30.6296C62.9287 25.9742 64.3735 22.0572 67.231 18.8466C70.1205 15.6681 73.8448 14.0627 78.5002 14.0627C82.674 14.0627 85.7563 15.4433 87.7468 18.2044V15.0259H96.6724V46.3616ZM87.9395 30.8543C87.9395 28.3821 87.1689 26.2952 85.5957 24.5936C84.0225 22.892 81.9998 22.0572 79.5276 22.0572C77.1839 22.0572 75.2896 22.892 73.7806 24.5936C72.2716 26.2952 71.5332 28.3179 71.5332 30.6938C71.5332 33.0054 72.3037 35.0602 73.8769 36.8261C75.4501 38.5919 77.3765 39.4588 79.6561 39.4588C81.9356 39.4588 83.8941 38.624 85.5315 36.9224C87.1368 35.1886 87.9395 33.166 87.9395 30.8543Z" fill="white"/>
  <path d="M135.713 30.6615C135.713 35.349 134.301 39.2659 131.443 42.4124C128.457 45.6551 124.669 47.2925 120.014 47.2925C115.968 47.2925 112.918 45.7835 110.863 42.7655V46.3935H102.195V0H111.216V17.8832C113.753 15.3468 116.803 14.0947 120.399 14.0947C125.086 14.0947 128.811 15.6679 131.572 18.8143C134.333 21.9607 135.713 25.9097 135.713 30.6615ZM118.858 39.4265C121.234 39.4265 123.224 38.5596 124.829 36.858C126.435 35.1242 127.237 33.0694 127.237 30.6615C127.237 28.2535 126.467 26.2308 124.926 24.5292C123.385 22.8597 121.426 22.0249 119.05 22.0249C116.674 22.0249 114.716 22.8597 113.175 24.5292C111.634 26.1987 110.863 28.2535 110.863 30.6615C110.863 32.9731 111.634 35.0279 113.143 36.7938C114.652 38.5596 116.546 39.4265 118.858 39.4265Z" fill="white"/>
  <path d="M148.589 46.3614H139.568V0H148.589V46.3614Z" fill="white"/>
  <path d="M9.50344 22.9888H0V41.0325H9.50344V22.9888Z" fill="white"/>
  <path d="M204 23.9507H194.497V41.9944H204V23.9507Z" fill="white"/>
  <path d="M183.998 25.332C182.874 21.8004 180.948 19.0392 178.218 17.0165C175.489 14.9938 172.247 13.9985 168.522 13.9985C163.995 13.9985 160.143 15.636 156.964 18.9429C153.786 22.2177 152.212 26.1347 152.212 30.6938C152.212 35.5418 153.753 39.523 156.836 42.6373C159.918 45.7516 163.867 47.2927 168.747 47.2927C172.279 47.2927 175.425 46.3295 178.186 44.371C179.406 43.5042 180.53 42.5089 181.461 41.3852L176.485 36.4408C175.072 38.5277 173.017 40.0367 168.779 40.0367C164.124 40.0367 161.427 37.8214 160.656 33.3586H184.864C184.929 32.877 184.993 32.4917 184.993 32.2349C184.961 29.6022 184.64 27.3226 183.998 25.332ZM160.817 27.3226C161.908 23.3093 164.509 21.2867 168.651 21.2867C172.825 21.2867 175.425 23.3093 176.421 27.3226H160.817Z" fill="white"/>
</svg>