<svg width="45" height="24" viewBox="0 0 45 24" fill="none" xmlns="http://www.w3.org/2000/svg">
<path d="M31.2439 16.756C31.2439 19.0935 30.3413 20.9219 28.5592 22.2179C26.9392 23.3983 24.9025 24 22.4724 24C20.1349 24 18.1446 23.3057 16.5245 21.9171C14.9045 20.5284 14.0018 18.7001 13.8398 16.4089H19.8803C19.9729 18.1447 20.8987 19.0241 22.7039 19.0241C24.3702 19.0241 25.2265 18.3067 25.2265 16.8949C25.2265 15.8766 24.2776 14.9971 22.403 14.2565C19.2555 12.9836 17.4965 12.2199 17.1494 11.9884C15.2747 10.8312 14.3259 9.25748 14.3259 7.26712C14.3259 5.09162 15.159 3.30954 16.8485 1.92092C18.4223 0.64802 20.2969 0 22.5419 0C27.4252 0 30.133 2.31437 30.6653 6.9431H24.6711C24.6711 5.64706 23.9073 4.99903 22.403 4.99903C21.0375 4.99903 20.3664 5.60077 20.3664 6.7811C20.3664 7.45226 20.9912 8.03085 22.241 8.51687C23.051 8.86403 24.2776 9.39633 25.8977 10.0906C29.4387 11.5255 31.2439 13.7474 31.2439 16.756Z" fill="white"/>
<path d="M6.85053 6.45709H0V19.4638H6.85053V6.45709Z" fill="white"/>
<path d="M44.5283 6.45703H37.6777V19.4638H44.5283V6.45703Z" fill="white"/>
</svg>
