<svg width="134" height="83" viewBox="0 0 134 83" fill="none" xmlns="http://www.w3.org/2000/svg">
<g id="Group 42">
<path id="Vector" d="M97.1655 57.9161C97.1655 65.9956 94.0457 72.3152 87.8861 76.7949C82.2865 80.8746 75.247 82.9545 66.8475 82.9545C58.7681 82.9545 51.8885 80.5546 46.2889 75.7549C40.6893 70.9553 37.5695 64.6357 37.0095 56.7162H57.8881C58.2081 62.7158 61.4079 65.7556 67.6475 65.7556C73.4071 65.7556 76.3669 63.2758 76.3669 58.3961C76.3669 54.8763 73.0871 51.8365 66.6075 49.2767C55.7282 44.877 49.6487 42.2372 48.4487 41.4372C41.9692 37.4375 38.6894 31.9979 38.6894 25.1183C38.6894 17.5988 41.5692 11.4392 47.4088 6.63955C52.8485 2.23984 59.328 0 67.0875 0C83.9664 0 93.3257 7.99946 95.1656 23.9984H74.447C74.447 19.5187 71.8072 17.2788 66.6075 17.2788C61.8878 17.2788 59.568 19.3587 59.568 23.4384C59.568 25.7583 61.7279 27.7581 66.0476 29.438C68.8474 30.6379 73.0871 32.4778 78.6867 34.8776C90.9259 39.8373 97.1655 47.5168 97.1655 57.9161Z" fill="black"/>
<path id="Vector_2" d="M18.8538 20.419H0V61.8975H18.8538V20.419Z" fill="black"/>
<path id="Vector_3" d="M134 20.419H116.133V61.8952H134V20.419Z" fill="black"/>
</g>
</svg>
