<svg xmlns="http://www.w3.org/2000/svg" width="84" height="51" viewBox="0 0 84 51" fill="none">
  <path d="M60.4298 35.6069C60.4298 40.5742 58.5118 44.4594 54.7249 47.2136C51.2822 49.7218 46.9543 51.0005 41.7903 51.0005C36.8231 51.0005 32.5935 49.5251 29.1509 46.5742C25.7082 43.6234 23.7902 39.7381 23.4459 34.8692H36.2821C36.4788 38.5578 38.446 40.4266 42.2821 40.4266C45.8232 40.4266 47.6428 38.902 47.6428 35.902C47.6428 33.738 45.6264 31.8691 41.6428 30.2954C34.9542 27.5904 31.2165 25.9675 30.4787 25.4756C26.4951 23.0166 24.4787 19.6723 24.4787 15.4428C24.4787 10.8198 26.2492 7.03285 29.8394 4.082C33.1837 1.37706 37.1673 0 41.9379 0C52.315 0 58.0692 4.91808 59.2003 14.7542H46.4625C46.4625 12.0001 44.8395 10.623 41.6428 10.623C38.7411 10.623 37.3149 11.9017 37.3149 14.41C37.3149 15.8362 38.6428 17.0657 41.2985 18.0985C43.0199 18.8362 45.6264 19.9674 49.0691 21.4428C56.5937 24.492 60.4298 29.2134 60.4298 35.6069Z" fill="white" fill-opacity="0.6"/>
  <path d="M12.284 12.5534H0.692627V38.0544H12.284V12.5534Z" fill="white" fill-opacity="0.6"/>
  <path d="M83.0759 12.5534H72.0914V38.053H83.0759V12.5534Z" fill="white" fill-opacity="0.6"/>
</svg>