<svg width="193" height="194" viewBox="0 0 193 194" fill="none" xmlns="http://www.w3.org/2000/svg">
<g id="Ok">
<g id="Subtract" filter="url(#filter0_f_232_158)">
<path fill-rule="evenodd" clip-rule="evenodd" d="M123.939 52.7318C124.491 51.7752 125.714 51.4474 126.671 51.9997L135.331 56.9997C136.288 57.552 136.615 58.7752 136.063 59.7318L90.2978 139C89.9406 139.619 89.2803 140 88.5658 140H76.2909C75.5763 140 74.9161 139.619 74.5588 139L49.0007 94.7318C48.4484 93.7752 48.7762 92.552 49.7328 91.9997L58.3932 86.9997C59.3498 86.4474 60.5729 86.7752 61.1252 87.7318L80.6964 121.63C81.4662 122.963 83.3907 122.963 84.1605 121.63L123.939 52.7318Z" fill="#C2FEB3" fill-opacity="0.5"/>
</g>
<g id="Subtract_2" filter="url(#filter1_ddii_232_158)">
<path fill-rule="evenodd" clip-rule="evenodd" d="M123.939 52.7318C124.491 51.7752 125.714 51.4474 126.671 51.9997L135.331 56.9997C136.288 57.552 136.615 58.7752 136.063 59.7318L90.2978 139C89.9406 139.619 89.2803 140 88.5658 140H76.2909C75.5763 140 74.9161 139.619 74.5588 139L49.0007 94.7318C48.4484 93.7752 48.7762 92.552 49.7328 91.9997L58.3932 86.9997C59.3498 86.4474 60.5729 86.7752 61.1252 87.7318L80.6964 121.63C81.4662 122.963 83.3907 122.963 84.1605 121.63L123.939 52.7318Z" fill="url(#paint0_linear_232_158)"/>
</g>
<g id="Ellipse 31" filter="url(#filter2_di_232_158)">
<circle cx="95" cy="95" r="73" stroke="url(#paint1_linear_232_158)" stroke-width="4" shape-rendering="crispEdges"/>
</g>
</g>
<defs>
<filter id="filter0_f_232_158" x="43.7324" y="46.7314" width="97.5991" height="98.2681" filterUnits="userSpaceOnUse" color-interpolation-filters="sRGB">
<feFlood flood-opacity="0" result="BackgroundImageFix"/>
<feBlend mode="normal" in="SourceGraphic" in2="BackgroundImageFix" result="shape"/>
<feGaussianBlur stdDeviation="2.5" result="effect1_foregroundBlur_232_158"/>
</filter>
<filter id="filter1_ddii_232_158" x="4.73242" y="5.73145" width="187.599" height="188.268" filterUnits="userSpaceOnUse" color-interpolation-filters="sRGB">
<feFlood flood-opacity="0" result="BackgroundImageFix"/>
<feColorMatrix in="SourceAlpha" type="matrix" values="0 0 0 0 0 0 0 0 0 0 0 0 0 0 0 0 0 0 127 0" result="hardAlpha"/>
<feOffset dx="6" dy="4"/>
<feGaussianBlur stdDeviation="25"/>
<feComposite in2="hardAlpha" operator="out"/>
<feColorMatrix type="matrix" values="0 0 0 0 0.831373 0 0 0 0 0.909804 0 0 0 0 0.811765 0 0 0 0.7 0"/>
<feBlend mode="normal" in2="BackgroundImageFix" result="effect1_dropShadow_232_158"/>
<feColorMatrix in="SourceAlpha" type="matrix" values="0 0 0 0 0 0 0 0 0 0 0 0 0 0 0 0 0 0 127 0" result="hardAlpha"/>
<feOffset dx="7" dy="7"/>
<feGaussianBlur stdDeviation="5"/>
<feComposite in2="hardAlpha" operator="out"/>
<feColorMatrix type="matrix" values="0 0 0 0 0.654167 0 0 0 0 0.654167 0 0 0 0 0.654167 0 0 0 0.25 0"/>
<feBlend mode="normal" in2="effect1_dropShadow_232_158" result="effect2_dropShadow_232_158"/>
<feBlend mode="normal" in="SourceGraphic" in2="effect2_dropShadow_232_158" result="shape"/>
<feColorMatrix in="SourceAlpha" type="matrix" values="0 0 0 0 0 0 0 0 0 0 0 0 0 0 0 0 0 0 127 0" result="hardAlpha"/>
<feOffset/>
<feGaussianBlur stdDeviation="2"/>
<feComposite in2="hardAlpha" operator="arithmetic" k2="-1" k3="1"/>
<feColorMatrix type="matrix" values="0 0 0 0 1 0 0 0 0 1 0 0 0 0 1 0 0 0 0.41 0"/>
<feBlend mode="normal" in2="shape" result="effect3_innerShadow_232_158"/>
<feColorMatrix in="SourceAlpha" type="matrix" values="0 0 0 0 0 0 0 0 0 0 0 0 0 0 0 0 0 0 127 0" result="hardAlpha"/>
<feOffset dy="-1"/>
<feGaussianBlur stdDeviation="0.5"/>
<feComposite in2="hardAlpha" operator="arithmetic" k2="-1" k3="1"/>
<feColorMatrix type="matrix" values="0 0 0 0 0.666667 0 0 0 0 0.972549 0 0 0 0 0.588235 0 0 0 1 0"/>
<feBlend mode="normal" in2="effect3_innerShadow_232_158" result="effect4_innerShadow_232_158"/>
</filter>
<filter id="filter2_di_232_158" x="0" y="0" width="190" height="190" filterUnits="userSpaceOnUse" color-interpolation-filters="sRGB">
<feFlood flood-opacity="0" result="BackgroundImageFix"/>
<feColorMatrix in="SourceAlpha" type="matrix" values="0 0 0 0 0 0 0 0 0 0 0 0 0 0 0 0 0 0 127 0" result="hardAlpha"/>
<feOffset/>
<feGaussianBlur stdDeviation="10"/>
<feComposite in2="hardAlpha" operator="out"/>
<feColorMatrix type="matrix" values="0 0 0 0 1 0 0 0 0 1 0 0 0 0 1 0 0 0 0.3 0"/>
<feBlend mode="normal" in2="BackgroundImageFix" result="effect1_dropShadow_232_158"/>
<feBlend mode="normal" in="SourceGraphic" in2="effect1_dropShadow_232_158" result="shape"/>
<feColorMatrix in="SourceAlpha" type="matrix" values="0 0 0 0 0 0 0 0 0 0 0 0 0 0 0 0 0 0 127 0" result="hardAlpha"/>
<feOffset dy="1"/>
<feComposite in2="hardAlpha" operator="arithmetic" k2="-1" k3="1"/>
<feColorMatrix type="matrix" values="0 0 0 0 1 0 0 0 0 1 0 0 0 0 1 0 0 0 0.48 0"/>
<feBlend mode="normal" in2="shape" result="effect2_innerShadow_232_158"/>
</filter>
<linearGradient id="paint0_linear_232_158" x1="92.993" y1="154.381" x2="114.481" y2="43.8636" gradientUnits="userSpaceOnUse">
<stop stop-color="#8BD778"/>
<stop offset="1" stop-color="#CEFFC2"/>
</linearGradient>
<linearGradient id="paint1_linear_232_158" x1="128.173" y1="12.3077" x2="66.6346" y2="176.731" gradientUnits="userSpaceOnUse">
<stop stop-color="#E1F9DB"/>
<stop offset="1" stop-color="#AAF199"/>
</linearGradient>
</defs>
</svg>
